<svg class="main-svg" xmlns="http://www.w3.org/2000/svg" xmlns:xlink="http://www.w3.org/1999/xlink" width="500" height="500" style="" viewBox="0 0 500 500"><rect x="0" y="0" width="500" height="500" style="fill: rgb(255, 255, 255); fill-opacity: 1;"/><defs id="defs-4843f2"><g class="clips"/><g class="gradients"/><g class="patterns"/></defs><g class="bglayer"/><g class="layer-below"><g class="imagelayer"/><g class="shapelayer"/></g><g class="cartesianlayer"/><g class="polarlayer"/><g class="smithlayer"/><g class="ternarylayer"/><g class="geolayer"/><g class="funnelarealayer"/><g class="pielayer"/><g class="iciclelayer"/><g class="treemaplayer"/><g class="sunburstlayer"><g class="trace sunburst" stroke-linejoin="round" style="opacity: 1;"><g class="slice cursor-pointer"><path class="surface" d="M250,240L335,240A85,85 0,1,0 181.39085402405598,290.17753569528503L250,240A0,0 0,1,1 250,240Z" style="pointer-events: all; stroke-width: 1; fill: rgb(95, 70, 144); fill-opacity: 1; stroke: rgb(255, 255, 255); stroke-opacity: 1;"/><g class="slicetext"><text data-notex="1" class="slicetext" text-anchor="middle" x="0" y="0" style="font-family: 'Open Sans', verdana, arial, sans-serif; font-size: 12px; fill: rgb(255, 255, 255); fill-opacity: 1; white-space: pre;" transform="translate(223.60660506826795,159.2015550646077)scale(0)"></text></g></g><g class="slice cursor-pointer"><path class="surface" d="M250,240L181.39085402405598,290.17753569528503A85,85 0,0,0 282.03403588503386,318.7325888366206L250,240A0,0 0,0,1 250,240Z" style="pointer-events: all; stroke-width: 1; fill: rgb(29, 105, 150); fill-opacity: 1; stroke: rgb(255, 255, 255); stroke-opacity: 1;"/><g class="slicetext"><text data-notex="1" class="slicetext" text-anchor="middle" x="0" y="0" style="font-family: 'Open Sans', verdana, arial, sans-serif; font-size: 12px; fill: rgb(255, 255, 255); fill-opacity: 1; white-space: pre;" transform="translate(235.63754470925784,290.6209248724486)"></text></g></g><g class="slice cursor-pointer"><path class="surface" d="M250,240L282.03403588503386,318.7325888366206A85,85 0,0,0 317.8125273607786,291.249011043567L250,240A0,0 0,0,1 250,240Z" style="pointer-events: all; stroke-width: 1; fill: rgb(29, 105, 150); fill-opacity: 1; stroke: rgb(255, 255, 255); stroke-opacity: 1;"/><g class="slicetext"><text data-notex="1" class="slicetext" text-anchor="middle" x="0" y="0" style="font-family: 'Open Sans', verdana, arial, sans-serif; font-size: 12px; fill: rgb(255, 255, 255); fill-opacity: 1; white-space: pre;" transform="translate(290.9202786267502,293.27056946720813)"></text></g></g><g class="slice cursor-pointer"><path class="surface" d="M250,240L317.8125273607786,291.249011043567A85,85 0,0,0 330.6731723241751,266.7738541707008L250,240A0,0 0,0,1 250,240Z" style="pointer-events: all; stroke-width: 1; fill: rgb(56, 166, 165); fill-opacity: 1; stroke: rgb(255, 255, 255); stroke-opacity: 1;"/><g class="slicetext"><text data-notex="1" class="slicetext" text-anchor="middle" x="0" y="0" style="font-family: 'Open Sans', verdana, arial, sans-serif; font-size: 12px; fill: rgb(68, 68, 68); fill-opacity: 1; white-space: pre;" transform="translate(314.7189542153042,274.00703402592194)"></text></g></g><g class="slice cursor-pointer"><path class="surface" d="M250,240L330.6731723241751,266.7738541707008A85,85 0,0,0 334.5708364434105,248.5307457623532L250,240A0,0 0,0,1 250,240Z" style="pointer-events: all; stroke-width: 1; fill: rgb(0, 0, 0); fill-opacity: 0; stroke: rgb(255, 255, 255); stroke-opacity: 1;"/><g class="slicetext"><text data-notex="1" class="slicetext" text-anchor="middle" x="0" y="0" style="font-family: 'Open Sans', verdana, arial, sans-serif; font-size: 12px; fill: rgb(68, 68, 68); fill-opacity: 1; white-space: pre;" transform="translate(324.90441005098535,256.00342578102726)"></text></g></g><g class="slice cursor-pointer"><path class="surface" d="M250,240L334.5708364434105,248.5307457623532A85,85 0,0,0 334.99958054215796,240.2670349362997L250,240A0,0 0,0,1 250,240Z" style="pointer-events: all; stroke-width: 1; fill: rgb(56, 166, 165); fill-opacity: 1; stroke: rgb(255, 255, 255); stroke-opacity: 1;"/><g class="slicetext"><text data-notex="1" class="slicetext" text-anchor="middle" x="0" y="0" style="font-family: 'Open Sans', verdana, arial, sans-serif; font-size: 12px; fill: rgb(68, 68, 68); fill-opacity: 1; white-space: pre;" transform="translate(330.9457573575911,244.19968903997605)"></text></g></g><g class="slice cursor-pointer"><path class="surface" d="M250,240L334.99958054215796,240.2670349362997A85,85 0,0,0 335,239.99999999999994L250,240A0,0 0,0,1 250,240Z" style="pointer-events: all; stroke-width: 1; fill: rgb(29, 105, 150); fill-opacity: 1; stroke: rgb(255, 255, 255); stroke-opacity: 1;"/><g class="slicetext"><text data-notex="1" class="slicetext" text-anchor="middle" x="0" y="0" style="font-family: 'Open Sans', verdana, arial, sans-serif; font-size: 12px; fill: rgb(255, 255, 255); fill-opacity: 1; white-space: pre;" transform="translate(334.866587067063,240.13330823287413)"></text></g></g><g class="slice"><path class="surface" d="M335,240L420,240A170,170 0,1,0 90.05026927778167,297.58544644169956L170.02513463889085,268.7927232208498A85,85 0,1,1 335,240Z" style="pointer-events: all; stroke-width: 1; fill: rgb(95, 70, 144); fill-opacity: 1; stroke: rgb(255, 255, 255); stroke-opacity: 1; opacity: 0.7;"/><g class="slicetext"><text data-notex="1" class="slicetext" text-anchor="middle" x="0" y="0" style="font-family: 'Open Sans', verdana, arial, sans-serif; font-size: 12px; fill: rgb(255, 255, 255); fill-opacity: 1; white-space: pre;" transform="translate(220.77205295250036,72.53141455368845)scale(0)"></text></g></g><g class="slice"><path class="surface" d="M170.02513463889085,268.7927232208498L90.05026927778167,297.58544644169956A170,170 0,0,0 100.2626204630894,320.4904787500931L175.13131023154472,280.24523937504654A85,85 0,0,1 170.02513463889085,268.7927232208498Z" style="pointer-events: all; stroke-width: 1; fill: rgb(95, 70, 144); fill-opacity: 1; stroke: rgb(255, 255, 255); stroke-opacity: 1; opacity: 0.7;"/><g class="slicetext"><text data-notex="1" class="slicetext" text-anchor="middle" x="0" y="0" style="font-family: 'Open Sans', verdana, arial, sans-serif; font-size: 12px; fill: rgb(255, 255, 255); fill-opacity: 1; white-space: pre;" transform="translate(105.39930035620944,304.47112173958607)"></text></g></g><g class="slice"><path class="surface" d="M175.13131023154472,280.24523937504654L100.2626204630894,320.4904787500931A170,170 0,0,0 107.3291230490951,332.43928207239475L178.66456152454754,286.21964103619734A85,85 0,0,1 175.13131023154472,280.24523937504654Z" style="pointer-events: all; stroke-width: 1; fill: rgb(95, 70, 144); fill-opacity: 1; stroke: rgb(255, 255, 255); stroke-opacity: 1; opacity: 0.7;"/><g class="slicetext"><text data-notex="1" class="slicetext" text-anchor="middle" x="0" y="0" style="font-family: 'Open Sans', verdana, arial, sans-serif; font-size: 12px; fill: rgb(255, 255, 255); fill-opacity: 1; white-space: pre;" transform="translate(109.41389497469552,323.14239074163805)"></text></g></g><g class="slice"><path class="surface" d="M178.66456152454754,286.21964103619734L107.3291230490951,332.43928207239475A170,170 0,0,0 111.84199204637406,339.0573815436579L180.92099602318703,289.52869077182896A85,85 0,0,1 178.66456152454754,286.21964103619734Z" style="pointer-events: all; stroke-width: 1; fill: rgb(0, 0, 0); fill-opacity: 0; stroke: rgb(255, 255, 255); stroke-opacity: 1; opacity: 0.7;"/><g class="slicetext"><text data-notex="1" class="slicetext" text-anchor="middle" x="0" y="0" style="font-family: 'Open Sans', verdana, arial, sans-serif; font-size: 12px; fill: rgb(68, 68, 68); fill-opacity: 1; white-space: pre;" transform="translate(112.77945567495937,333.57041896440614)"></text></g></g><g class="slice"><path class="surface" d="M180.92099602318703,289.52869077182896L111.84199204637406,339.0573815436579A170,170 0,0,0 112.46711095625898,339.9234928897205L181.2335554781295,289.96174644486024A85,85 0,0,1 180.92099602318703,289.52869077182896Z" style="pointer-events: all; stroke-width: 1; fill: rgb(95, 70, 144); fill-opacity: 1; stroke: rgb(255, 255, 255); stroke-opacity: 1; opacity: 0.7;"/><g class="slicetext"><text data-notex="1" class="slicetext" text-anchor="middle" x="0" y="0" style="font-family: 'Open Sans', verdana, arial, sans-serif; font-size: 12px; fill: rgb(255, 255, 255); fill-opacity: 1; white-space: pre;" transform="translate(112.58557070993345,339.1793475870994)"></text></g></g><g class="slice"><path class="surface" d="M181.2335554781295,289.96174644486024L112.46711095625898,339.9234928897205A170,170 0,0,0 112.78170804811197,340.35507139057006L181.39085402405598,290.17753569528503A85,85 0,0,1 181.2335554781295,289.96174644486024Z" style="pointer-events: all; stroke-width: 1; fill: rgb(95, 70, 144); fill-opacity: 1; stroke: rgb(255, 255, 255); stroke-opacity: 1; opacity: 0.7;"/><g class="slicetext"><text data-notex="1" class="slicetext" text-anchor="middle" x="0" y="0" style="font-family: 'Open Sans', verdana, arial, sans-serif; font-size: 12px; fill: rgb(255, 255, 255); fill-opacity: 1; white-space: pre;" transform="translate(112.83969084287509,339.9823538326002)"></text></g></g><g class="slice"><path class="surface" d="M181.39085402405598,290.17753569528503L112.78170804811197,340.35507139057006A170,170 0,0,0 297.42848802666913,403.2499265650803L273.71424401333456,321.62496328254014A85,85 0,0,1 181.39085402405598,290.17753569528503Z" style="pointer-events: all; stroke-width: 1; fill: rgb(29, 105, 150); fill-opacity: 1; stroke: rgb(255, 255, 255); stroke-opacity: 1; opacity: 0.7;"/><g class="slicetext"><text data-notex="1" class="slicetext" text-anchor="middle" x="0" y="0" style="font-family: 'Open Sans', verdana, arial, sans-serif; font-size: 12px; fill: rgb(255, 255, 255); fill-opacity: 1; white-space: pre;" transform="translate(208.89005874731174,360.6906074647092)"></text></g></g><g class="slice"><path class="surface" d="M273.71424401333456,321.62496328254014L297.42848802666913,403.2499265650803A170,170 0,0,0 312.08429952157,398.25782682987904L281.04214976078504,319.1289134149395A85,85 0,0,1 273.71424401333456,321.62496328254014Z" style="pointer-events: all; stroke-width: 1; fill: rgb(0, 0, 0); fill-opacity: 0; stroke: rgb(255, 255, 255); stroke-opacity: 1; opacity: 0.7;"/><g class="slicetext"><text data-notex="1" class="slicetext" text-anchor="middle" x="0" y="0" style="font-family: 'Open Sans', verdana, arial, sans-serif; font-size: 12px; fill: rgb(68, 68, 68); fill-opacity: 1; white-space: pre;" transform="translate(302.4259181094802,393.9120638639803)"></text></g></g><g class="slice"><path class="surface" d="M281.04214976078504,319.1289134149395L312.08429952157,398.25782682987904A170,170 0,0,0 314.0680717700677,397.46517767324127L282.03403588503386,318.7325888366206A85,85 0,0,1 281.04214976078504,319.1289134149395Z" style="pointer-events: all; stroke-width: 1; fill: rgb(29, 105, 150); fill-opacity: 1; stroke: rgb(255, 255, 255); stroke-opacity: 1; opacity: 0.7;"/><g class="slicetext"><text data-notex="1" class="slicetext" text-anchor="middle" x="0" y="0" style="font-family: 'Open Sans', verdana, arial, sans-serif; font-size: 12px; fill: rgb(255, 255, 255); fill-opacity: 1; white-space: pre;" transform="translate(312.6835807779939,396.8789254899573)"></text></g></g><g class="slice"><path class="surface" d="M282.03403588503386,318.7325888366206L314.0680717700677,397.46517767324127A170,170 0,0,0 383.3383936286798,345.45554885601445L316.6691968143399,292.72777442800725A85,85 0,0,1 282.03403588503386,318.7325888366206Z" style="pointer-events: all; stroke-width: 1; fill: rgb(29, 105, 150); fill-opacity: 1; stroke: rgb(255, 255, 255); stroke-opacity: 1; opacity: 0.7;"/><g class="slicetext"><text data-notex="1" class="slicetext" text-anchor="middle" x="0" y="0" style="font-family: 'Open Sans', verdana, arial, sans-serif; font-size: 12px; fill: rgb(255, 255, 255); fill-opacity: 1; white-space: pre;" transform="translate(331.3466844708299,348.3436114344836)"></text></g></g><g class="slice"><path class="surface" d="M316.6691968143399,292.72777442800725L383.3383936286798,345.45554885601445A170,170 0,0,0 384.9783677701321,343.34815060808285L317.48918388506604,291.6740753040414A85,85 0,0,1 316.6691968143399,292.72777442800725Z" style="pointer-events: all; stroke-width: 1; fill: rgb(29, 105, 150); fill-opacity: 1; stroke: rgb(255, 255, 255); stroke-opacity: 1; opacity: 0.7;"/><g class="slicetext"><text data-notex="1" class="slicetext" text-anchor="middle" x="0" y="0" style="font-family: 'Open Sans', verdana, arial, sans-serif; font-size: 12px; fill: rgb(255, 255, 255); fill-opacity: 1; white-space: pre;" transform="translate(383.1170306223527,343.5914726710242)"></text></g></g><g class="slice"><path class="surface" d="M317.48918388506604,291.6740753040414L384.9783677701321,343.34815060808285A170,170 0,0,0 385.3023789357727,342.9235942547702L317.65118946788635,291.4617971273851A85,85 0,0,1 317.48918388506604,291.6740753040414Z" style="pointer-events: all; stroke-width: 1; fill: rgb(0, 0, 0); fill-opacity: 0; stroke: rgb(255, 255, 255); stroke-opacity: 1; opacity: 0.7;"/><g class="slicetext"><text data-notex="1" class="slicetext" text-anchor="middle" x="0" y="0" style="font-family: 'Open Sans', verdana, arial, sans-serif; font-size: 12px; fill: rgb(68, 68, 68); fill-opacity: 1; white-space: pre;" transform="translate(384.9285948219099,342.97424816608384)"></text></g></g><g class="slice"><path class="surface" d="M317.65118946788635,291.4617971273851L385.3023789357727,342.9235942547702A170,170 0,0,0 385.62505472155704,342.4980220871342L317.8125273607785,291.2490110435671A85,85 0,0,1 317.65118946788635,291.4617971273851Z" style="pointer-events: all; stroke-width: 1; fill: rgb(29, 105, 150); fill-opacity: 1; stroke: rgb(255, 255, 255); stroke-opacity: 1; opacity: 0.7;"/><g class="slicetext"><text data-notex="1" class="slicetext" text-anchor="middle" x="0" y="0" style="font-family: 'Open Sans', verdana, arial, sans-serif; font-size: 12px; fill: rgb(255, 255, 255); fill-opacity: 1; white-space: pre;" transform="translate(385.2514315859373,342.5498500239755)"></text></g></g><g class="slice"><path class="surface" d="M317.8125273607786,291.249011043567L385.62505472155715,342.4980220871341A170,170 0,0,0 398.4546173176865,322.8325213733063L324.22730865884324,281.4162606866532A85,85 0,0,1 317.8125273607786,291.249011043567Z" style="pointer-events: all; stroke-width: 1; fill: rgb(56, 166, 165); fill-opacity: 1; stroke: rgb(255, 255, 255); stroke-opacity: 1; opacity: 0.7;"/><g class="slicetext"><text data-notex="1" class="slicetext" text-anchor="middle" x="0" y="0" style="font-family: 'Open Sans', verdana, arial, sans-serif; font-size: 12px; fill: rgb(68, 68, 68); fill-opacity: 1; white-space: pre;" transform="translate(383.1822006084439,326.8866450064422)"></text></g></g><g class="slice"><path class="surface" d="M324.22730865884324,281.4162606866532L398.4546173176865,322.8325213733063A170,170 0,0,0 403.592443953616,312.86536324177155L326.796221976808,276.4326816208858A85,85 0,0,1 324.22730865884324,281.4162606866532Z" style="pointer-events: all; stroke-width: 1; fill: rgb(56, 166, 165); fill-opacity: 1; stroke: rgb(255, 255, 255); stroke-opacity: 1; opacity: 0.7;"/><g class="slicetext"><text data-notex="1" class="slicetext" text-anchor="middle" x="0" y="0" style="font-family: 'Open Sans', verdana, arial, sans-serif; font-size: 12px; fill: rgb(68, 68, 68); fill-opacity: 1; white-space: pre;" transform="translate(396.28126941331243,315.40442244529436)"></text></g></g><g class="slice"><path class="surface" d="M326.796221976808,276.4326816208858L403.592443953616,312.86536324177155A170,170 0,0,0 408.06200260100286,302.58117395639493L329.03100130050143,271.2905869781975A85,85 0,0,1 326.796221976808,276.4326816208858Z" style="pointer-events: all; stroke-width: 1; fill: rgb(56, 166, 165); fill-opacity: 1; stroke: rgb(255, 255, 255); stroke-opacity: 1; opacity: 0.7;"/><g class="slicetext"><text data-notex="1" class="slicetext" text-anchor="middle" x="0" y="0" style="font-family: 'Open Sans', verdana, arial, sans-serif; font-size: 12px; fill: rgb(68, 68, 68); fill-opacity: 1; white-space: pre;" transform="translate(400.93412221403526,305.5967030951799)"></text></g></g><g class="slice"><path class="surface" d="M329.03100130050143,271.2905869781975L408.06200260100286,302.58117395639493A170,170 0,0,0 411.00671184910664,294.56041366722525L330.5033559245533,267.2802068336126A85,85 0,0,1 329.03100130050143,271.2905869781975Z" style="pointer-events: all; stroke-width: 1; fill: rgb(0, 0, 0); fill-opacity: 0; stroke: rgb(255, 255, 255); stroke-opacity: 1; opacity: 0.7;"/><g class="slicetext"><text data-notex="1" class="slicetext" text-anchor="middle" x="0" y="0" style="font-family: 'Open Sans', verdana, arial, sans-serif; font-size: 12px; fill: rgb(68, 68, 68); fill-opacity: 1; white-space: pre;" transform="translate(405.6726863356238,297.15303569770765)"></text></g></g><g class="slice"><path class="surface" d="M330.5033559245533,267.2802068336126L411.00671184910664,294.56041366722525A170,170 0,0,0 411.34634464835017,293.5477083414015L330.6731723241751,266.77385417070076A85,85 0,0,1 330.5033559245533,267.2802068336126Z" style="pointer-events: all; stroke-width: 1; fill: rgb(56, 166, 165); fill-opacity: 1; stroke: rgb(255, 255, 255); stroke-opacity: 1; opacity: 0.7;"/><g class="slicetext"><text data-notex="1" class="slicetext" text-anchor="middle" x="0" y="0" style="font-family: 'Open Sans', verdana, arial, sans-serif; font-size: 12px; fill: rgb(68, 68, 68); fill-opacity: 1; white-space: pre;" transform="translate(410.6725567327298,293.8850431741974)"></text></g></g><g class="slice"><path class="surface" d="M330.6731723241751,266.7738541707008L411.34634464835017,293.54770834140163A170,170 0,0,0 419.141672886821,257.0614915247064L334.5708364434105,248.5307457623532A85,85 0,0,1 330.6731723241751,266.7738541707008Z" style="pointer-events: all; stroke-width: 1; fill: rgb(0, 0, 0); fill-opacity: 0; stroke: rgb(255, 255, 255); stroke-opacity: 1; opacity: 0.7;"/><g class="slicetext"><text data-notex="1" class="slicetext" text-anchor="middle" x="0" y="0" style="font-family: 'Open Sans', verdana, arial, sans-serif; font-size: 12px; fill: rgb(68, 68, 68); fill-opacity: 1; white-space: pre;" transform="translate(399.8088201019707,272.0068515620545)"></text></g></g><g class="slice"><path class="surface" d="M334.5708364434105,248.5307457623532L419.141672886821,257.0614915247064A170,170 0,0,0 419.72826351852575,249.60815086194407L334.8641317592629,244.80407543097203A85,85 0,0,1 334.5708364434105,248.5307457623532Z" style="pointer-events: all; stroke-width: 1; fill: rgb(56, 166, 165); fill-opacity: 1; stroke: rgb(255, 255, 255); stroke-opacity: 1; opacity: 0.7;"/><g class="slicetext"><text data-notex="1" class="slicetext" text-anchor="middle" x="0" y="0" style="font-family: 'Open Sans', verdana, arial, sans-serif; font-size: 12px; fill: rgb(68, 68, 68); fill-opacity: 1; white-space: pre;" transform="translate(415.829460363482,253.05106157241124)"></text></g></g><g class="slice"><path class="surface" d="M334.8641317592629,244.80407543097203L419.72826351852575,249.60815086194407A170,170 0,0,0 419.91611526217434,245.33982904328167L334.9580576310872,242.66991452164083A85,85 0,0,1 334.8641317592629,244.80407543097203Z" style="pointer-events: all; stroke-width: 1; fill: rgb(0, 0, 0); fill-opacity: 0; stroke: rgb(255, 255, 255); stroke-opacity: 1; opacity: 0.7;"/><g class="slicetext"><text data-notex="1" class="slicetext" text-anchor="middle" x="0" y="0" style="font-family: 'Open Sans', verdana, arial, sans-serif; font-size: 12px; fill: rgb(68, 68, 68); fill-opacity: 1; white-space: pre;" transform="translate(417.72792312375617,247.38181987112463)"></text></g></g><g class="slice"><path class="surface" d="M334.9580576310872,242.66991452164083L419.91611526217434,245.33982904328167A170,170 0,0,0 419.96979990473756,243.20423475161923L334.9848999523688,241.60211737580963A85,85 0,0,1 334.9580576310872,242.66991452164083Z" style="pointer-events: all; stroke-width: 1; fill: rgb(56, 166, 165); fill-opacity: 1; stroke: rgb(255, 255, 255); stroke-opacity: 1; opacity: 0.7;"/><g class="slicetext"><text data-notex="1" class="slicetext" text-anchor="middle" x="0" y="0" style="font-family: 'Open Sans', verdana, arial, sans-serif; font-size: 12px; fill: rgb(68, 68, 68); fill-opacity: 1; white-space: pre;" transform="translate(418.8851822643445,244.24544150519264)"></text></g></g><g class="slice"><path class="surface" d="M334.9848999523688,241.60211737580963L419.96979990473756,243.20423475161923A170,170 0,0,0 419.9924498085215,241.60218853363426L334.99622490426077,240.80109426681713A85,85 0,0,1 334.9848999523688,241.60211737580963Z" style="pointer-events: all; stroke-width: 1; fill: rgb(56, 166, 165); fill-opacity: 1; stroke: rgb(255, 255, 255); stroke-opacity: 1; opacity: 0.7;"/><g class="slicetext"><text data-notex="1" class="slicetext" text-anchor="middle" x="0" y="0" style="font-family: 'Open Sans', verdana, arial, sans-serif; font-size: 12px; fill: rgb(68, 68, 68); fill-opacity: 1; white-space: pre;" transform="translate(419.18574613142073,242.3919664916469)"></text></g></g><g class="slice"><path class="surface" d="M334.99622490426077,240.80109426681713L419.9924498085215,241.60218853363426A170,170 0,0,0 419.9966443455433,241.06813447414484L334.9983221727716,240.53406723707243A85,85 0,0,1 334.99622490426077,240.80109426681713Z" style="pointer-events: all; stroke-width: 1; fill: rgb(56, 166, 165); fill-opacity: 1; stroke: rgb(255, 255, 255); stroke-opacity: 1; opacity: 0.7;"/><g class="slicetext"><text data-notex="1" class="slicetext" text-anchor="middle" x="0" y="0" style="font-family: 'Open Sans', verdana, arial, sans-serif; font-size: 12px; fill: rgb(68, 68, 68); fill-opacity: 1; white-space: pre;" transform="translate(419.7281485569456,241.33306917178345)"></text></g></g><g class="slice"><path class="surface" d="M334.9983221727716,240.53406723707243L419.9966443455433,241.06813447414484A170,170 0,0,0 419.9991610843159,240.5340698725994L334.99958054215796,240.2670349362997A85,85 0,0,1 334.9983221727716,240.53406723707243Z" style="pointer-events: all; stroke-width: 1; fill: rgb(56, 166, 165); fill-opacity: 1; stroke: rgb(255, 255, 255); stroke-opacity: 1; opacity: 0.7;"/><g class="slicetext"><text data-notex="1" class="slicetext" text-anchor="middle" x="0" y="0" style="font-family: 'Open Sans', verdana, arial, sans-serif; font-size: 12px; fill: rgb(68, 68, 68); fill-opacity: 1; white-space: pre;" transform="translate(419.7314989362214,240.7998467658482)"></text></g></g><g class="slice"><path class="surface" d="M334.99958054215796,240.2670349362997L419.9991610843159,240.5340698725994A170,170 0,0,0 420,239.9999999999999L335,239.99999999999994A85,85 0,0,1 334.99958054215796,240.2670349362997Z" style="pointer-events: all; stroke-width: 1; fill: rgb(0, 0, 0); fill-opacity: 0; stroke: rgb(255, 255, 255); stroke-opacity: 1; opacity: 0.7;"/><g class="slicetext"><text data-notex="1" class="slicetext" text-anchor="middle" x="0" y="0" style="font-family: 'Open Sans', verdana, arial, sans-serif; font-size: 12px; fill: rgb(68, 68, 68); fill-opacity: 1; white-space: pre;" transform="translate(419.733174134126,240.26661646574829)"></text></g></g></g></g><g class="glimages"/><defs id="topdefs-4843f2"><g class="clips"/></defs><g class="layer-above"><g class="imagelayer"/><g class="shapelayer"/></g><g class="infolayer"><g class="g-gtitle"/></g></svg>